<?xml version="1.0" encoding="UTF-8"?>
<svg width="18px" height="20px" viewBox="0 0 18 20" version="1.1" xmlns="http://www.w3.org/2000/svg" xmlns:xlink="http://www.w3.org/1999/xlink">
    <!-- Generator: sketchtool 63.1 (101010) - https://sketch.com -->
    <title>7781FDFD-41D7-4B8E-809F-40012865ADED</title>
    <desc>Created with sketchtool.</desc>
    <g id="Page-1" stroke="none" stroke-width="1" fill="none" fill-rule="evenodd">
        <g id="2.-Verify-DKIM" transform="translate(-911.000000, -545.000000)">
            <g id="Group-16" transform="translate(373.000000, 388.000000)">
                <g id="Group-5">
                    <g id="Group-17" transform="translate(78.000000, 126.000000)">
                        <g id="Group-14" transform="translate(25.000000, 25.000000)">
                            <g id="copy-link" transform="translate(434.000000, 6.000000)">
                                <g id="Copy">
                                    <rect id="Rectangle-Copy-5" x="0" y="0" width="20" height="20"></rect>
                                    <path d="M11.8177934,20 L3.18220662,20 C1.97700718,20 1,19.0070831 1,17.7822581 L1,6.21774194 C1,4.99291689 1.97700718,4 3.18220662,4 L11.8177934,4 C13.0229928,4 14,4.99291689 14,6.21774194 L14,17.7822581 C14,19.0070831 13.0229928,20 11.8177934,20 L11.8177934,20 Z M3.18220662,5.12298387 C2.58772918,5.12409344 2.10608187,5.61358395 2.10499008,6.21774194 L2.10499008,17.7822581 C2.10608187,18.3864161 2.58772918,18.8759066 3.18220662,18.8770161 L11.8177934,18.8770161 C12.4122708,18.8759066 12.8939181,18.3864161 12.8950099,17.7822581 L12.8950099,6.21774194 C12.8939181,5.61358395 12.4122708,5.12409344 11.8177934,5.12298387 L3.18220662,5.12298387 Z" id="Shape" fill="#4A90E2" fill-rule="nonzero"></path>
                                    <path d="M17.0840171,15 L16.6035445,15 C16.3022982,15 16.0580899,14.7511986 16.0580899,14.4442917 C16.0580899,14.1373849 16.3022982,13.8885877 16.6035445,13.8885877 L17.0918937,13.8885877 C17.5438576,13.8874848 17.9099775,13.5144853 17.9110601,13.0540287 L17.9110601,2.20676679 C17.9099763,1.60559866 17.4318918,1.11853053 16.8418116,1.11742646 L8.91007548,1.11742646 C8.45995937,1.11741453 8.09415512,1.48740491 8.09090909,1.94596708 C8.09090909,2.25287393 7.84670077,2.50167108 7.54545455,2.50167108 C7.24420832,2.50167108 7,2.25287393 7,1.94596708 C7.00108539,0.871697504 7.85561983,0.00110578531 8.91007548,0 L16.833935,0 C18.0302197,0 19,0.988003147 19,2.20676679 L19,13.0600471 C18.9956584,14.1343154 18.1384781,15.0022176 17.0840171,15 Z" id="Path" fill="#4A90E2" fill-rule="nonzero"></path>
                                </g>
                            </g>
                        </g>
                    </g>
                </g>
            </g>
        </g>
    </g>
</svg>