<?xml version="1.0" encoding="utf-8"?>
<!-- Svg Vector Icons : http://www.onlinewebfonts.com/icon -->
<!DOCTYPE svg PUBLIC "-//W3C//DTD SVG 1.1//EN" "http://www.w3.org/Graphics/SVG/1.1/DTD/svg11.dtd">
<svg version="1.1" xmlns="http://www.w3.org/2000/svg" xmlns:xlink="http://www.w3.org/1999/xlink" fill="#1FD1A1" x="0px" y="0px" viewBox="0 0 1000 1000" enable-background="new 0 0 1000 1000" xml:space="preserve">
<metadata> Svg Vector Icons : http://www.onlinewebfonts.com/icon </metadata>
<g><g transform="translate(0.000000,235.000000) scale(0.100000,-0.100000)"><path d="M3847.9-377.5c-171.5-39-327.4-148.1-409.3-288.5c-72.1-118.9-1042.8-3738.4-1042.8-3880.7c0-138.4,64.3-255.3,185.2-329.4l93.6-58.5h2906.1h2906.2l89.6,40.9c109.2,50.7,222.2,148.1,284.6,247.5C8931.3-4533,9900-911.5,9900-757.6c0,185.2-107.2,323.6-290.4,374.2C9541.3-363.8,3933.7-358,3847.9-377.5z M9295.8-703c0-9.7-3005.6-2064.1-3118.6-2134.3c-152-91.6-91.6-144.2-1122.7,966.8C4541.8-1317,4087.7-825.8,4046.8-779l-76,83.8h2662.5C8097-695.2,9295.8-699.1,9295.8-703z M4578.9-1821.8c409.3-442.5,740.7-808.9,736.8-810.8c-2-1.9-115-79.9-249.5-171.5c-134.5-89.6-686.1-467.8-1227.9-838.1c-1222.1-834.2-1099.3-754.3-1085.7-707.5c5.9,21.4,85.8,319.6,177.4,662.7c261.2,984.3,732.9,2744.4,746.5,2785.3C3688.1-857,3616-784.8,4578.9-1821.8z M9085.3-2689.1c-255.4-951.2-469.8-1732.8-477.5-1734.7c-5.8-2-376.2,387.9-820.6,867.4l-808.9,871.3l62.4,44.8C7405.1-2379.2,9541.3-933,9543.3-944.7C9547.2-952.5,9340.6-1738,9085.3-2689.1z M5691.8-3022.4c126.7-124.7,159.8-146.2,251.4-165.7c171.5-37,278.7-3.9,532.1,165.7c118.9,79.9,222.2,144.2,232,144.2c7.8,0,376.2-387.9,816.7-861.5l801.1-863.5l-1325.4-5.8c-729-2-1929.6-2-2666.4,0l-1339,5.8l1263,863.5c695.8,473.6,1268.9,861.5,1274.7,861.5C5539.8-2878.2,5610-2942.5,5691.8-3022.4z"/><path d="M1625.9-1075.3c-31.2-29.2-48.7-70.2-48.7-107.2s17.5-78,48.7-107.2l46.8-48.7h469.7h469.7l46.8,48.7c31.2,29.2,48.7,70.2,48.7,107.2s-17.5,78-48.7,107.2l-46.8,48.7h-469.7h-469.7L1625.9-1075.3z"/><path d="M807.3-2381.2c-31.2-29.2-48.7-70.2-48.7-107.2s17.5-78,48.7-107.2l46.8-48.7h719.2h719.2l40.9,44.8c58.5,62.4,56.5,157.9-5.8,218.3l-46.8,48.7h-713.4H854.1L807.3-2381.2z"/><path d="M150.4-3696.8c-48.7-50.7-56.5-70.2-46.8-122.8c25.3-134.5-5.8-130.6,978.5-130.6c859.6,0,886.9,1.9,923.9,39c60.4,60.4,52.6,181.3-11.7,231.9c-50.7,40.9-72.1,40.9-918,40.9H208.9L150.4-3696.8z"/></g></g>
</svg>