<svg id="Layer_1" data-name="Layer 1" xmlns="http://www.w3.org/2000/svg" viewBox="0 0 820 170"><g id="Layer_2" data-name="Layer 2"><g id="Layer_1-2" data-name="Layer 1-2"><path d="M10,8.83H219.55v152a33.09,33.09,0,0,1-3.71.39H13c-1,0-2-.14-2.95-.21ZM213.36,154.91v-137L23,154.69a22.8,22.8,0,0,0,2.47.44H95.29a10.22,10.22,0,0,0,5.3-2c8.36-5.83,16.59-11.89,24.88-17.84l36.68-26.25,3.53,4.86-56.92,41ZM16.32,17.75V152.17l94-67.59Zm8.55-2.54a11.48,11.48,0,0,0,1.41,1.55l86.82,61.8c2.75,2,4.36.87,6.4-.62l82.42-60c1-.7,1.76-1.53,3.15-2.74Z"/><path d="M418.09,60v98.75H388.35V12.44c1.64-.1,3.37-.28,5.09-.28,9.24,0,18.48.18,27.76-.1a7.13,7.13,0,0,1,7.81,4.8c11.22,24,22.72,47.82,34.18,71.71.76,1.55,1.61,3,2.88,5.43,1.39-2.62,2.34-4.28,3.17-6,11.64-23.79,23.32-47.58,34.8-71.37a6.57,6.57,0,0,1,7-4.5c11,.26,22,.1,33.35.1V159H514.68V60.59l-1.31-.43c-.79,1.41-1.66,2.77-2.42,4.22-10.76,20.4-21.59,40.76-32.19,61.24a6.23,6.23,0,0,1-6.82,4c-5.24-.34-11.58,1.49-15.49-.85s-5.37-8.63-7.81-13.25Q435,89.72,421.48,63.81c-.74-1.41-1.59-2.76-2.38-4.15Z"/><path d="M726.92,158.91H696.65V12.63a12.84,12.84,0,0,1,2.46-.45c21.27.16,42.57.1,63.82.65a55.78,55.78,0,0,1,16.34,3.37c21,7.2,32.13,24.77,30.59,47.27-1.37,20-15.74,35.9-37.14,40.4a111,111,0,0,1-18.63,2c-8.89.33-17.85,0-27.21,0ZM727,83.2h26.81a45.74,45.74,0,0,0,8.33-.88c10.17-2,16.67-9.91,17.48-20.91.86-11.54-4.74-21.81-14.59-24.59-12.49-3.63-25.34-1.15-38-1.68Z"/><path d="M357.16,19.87c-2.54,8.6-5,16.71-7.49,25.3-3.37-1.55-6.41-3-9.48-4.34a74.14,74.14,0,0,0-39-6.45c-10.9,1.19-17.37,7.93-17,17.41a14.81,14.81,0,0,0,9,13.13c7.83,3.7,16.16,6.38,24.17,9.71,9.91,4.09,20.18,7.4,29.18,12.87,15.43,9.4,21.32,26.05,16.88,43A35.35,35.35,0,0,1,346.67,152a61,61,0,0,1-27.58,8.61c-23.37,1.76-46-1.29-67.41-11.38a21,21,0,0,1-2-1.17c2-8.35,4-16.72,6.07-25.66a84.71,84.71,0,0,0,37.07,13.41,153.58,153.58,0,0,0,25.1.47c7.18-.44,13.63-3.31,15.87-11.12s-.72-15.13-8.55-19.65c-5.95-3.49-12.85-5.69-19.35-8.39-10.45-4.34-21.29-7.93-31.29-13.12s-17.68-13.72-19.82-25.5c-3-15.76,2.52-28.31,15.54-37.55a60.51,60.51,0,0,1,31.72-10.57A117.58,117.58,0,0,1,357.16,19.87Z"/><path d="M605.49,35.12H562.9c0-7.18-.14-13.88.18-20.76,0-.79,2.54-2,4-2.1,7.74-.22,15.51-.1,23.26-.1h88.19V35H635.86V158.73H605.49Z"/><path d="M24.87,15.21h180.2c-1.39,1.21-2.2,2-3.15,2.74l-82.5,60c-2,1.49-3.65,2.6-6.4.62q-43.29-31-86.74-61.8A11.48,11.48,0,0,1,24.87,15.21Z" style="fill:#21b193"/></g></g></svg>